<mxfile host="app.diagrams.net" modified="2022-10-28T15:19:37.254Z" agent="5.0 (X11)" etag="VMj7D0exWeoM5XZnyjLL" version="20.5.1" type="github">
  <diagram id="CJfv9iZg5P7FjEcWh2f2" name="Página-1">
    <mxGraphModel dx="1185" dy="643" grid="1" gridSize="10" guides="1" tooltips="1" connect="1" arrows="1" fold="1" page="1" pageScale="1" pageWidth="827" pageHeight="1169" math="0" shadow="0">
      <root>
        <mxCell id="0" />
        <mxCell id="1" parent="0" />
        <mxCell id="u3OVXh_-RhlKzZClgj6L-1" value="&lt;div&gt;Grupo musical&lt;/div&gt;" style="whiteSpace=wrap;html=1;align=center;strokeWidth=2;fillColor=#d5e8d4;strokeColor=#82b366;" parent="1" vertex="1">
          <mxGeometry x="40" y="40" width="100" height="40" as="geometry" />
        </mxCell>
        <mxCell id="u3OVXh_-RhlKzZClgj6L-2" value="Canción" style="whiteSpace=wrap;html=1;align=center;strokeWidth=2;fillColor=#d5e8d4;strokeColor=#82b366;" parent="1" vertex="1">
          <mxGeometry x="40" y="120" width="100" height="40" as="geometry" />
        </mxCell>
        <mxCell id="u3OVXh_-RhlKzZClgj6L-3" value="Músico" style="whiteSpace=wrap;html=1;align=center;strokeWidth=2;fillColor=#d5e8d4;strokeColor=#82b366;" parent="1" vertex="1">
          <mxGeometry x="40" y="200" width="100" height="40" as="geometry" />
        </mxCell>
        <mxCell id="u3OVXh_-RhlKzZClgj6L-4" value="&lt;div&gt;Álbum&lt;/div&gt;" style="whiteSpace=wrap;html=1;align=center;strokeWidth=2;fillColor=#d5e8d4;strokeColor=#82b366;" parent="1" vertex="1">
          <mxGeometry x="200" y="40" width="100" height="40" as="geometry" />
        </mxCell>
        <mxCell id="u3OVXh_-RhlKzZClgj6L-5" value="Músico" style="whiteSpace=wrap;html=1;align=center;strokeWidth=2;fillColor=#d5e8d4;strokeColor=#82b366;" parent="1" vertex="1">
          <mxGeometry x="40" y="320" width="100" height="40" as="geometry" />
        </mxCell>
        <mxCell id="u3OVXh_-RhlKzZClgj6L-8" style="edgeStyle=orthogonalEdgeStyle;rounded=0;orthogonalLoop=1;jettySize=auto;html=1;exitX=0;exitY=0.5;exitDx=0;exitDy=0;entryX=1;entryY=0.5;entryDx=0;entryDy=0;endArrow=none;endFill=0;" parent="1" source="u3OVXh_-RhlKzZClgj6L-6" target="u3OVXh_-RhlKzZClgj6L-5" edge="1">
          <mxGeometry relative="1" as="geometry" />
        </mxCell>
        <mxCell id="u3OVXh_-RhlKzZClgj6L-9" style="edgeStyle=orthogonalEdgeStyle;rounded=0;orthogonalLoop=1;jettySize=auto;html=1;exitX=1;exitY=0.5;exitDx=0;exitDy=0;entryX=0;entryY=0.5;entryDx=0;entryDy=0;endArrow=none;endFill=0;" parent="1" source="u3OVXh_-RhlKzZClgj6L-6" target="u3OVXh_-RhlKzZClgj6L-7" edge="1">
          <mxGeometry relative="1" as="geometry" />
        </mxCell>
        <mxCell id="u3OVXh_-RhlKzZClgj6L-6" value="Compone" style="shape=rhombus;perimeter=rhombusPerimeter;whiteSpace=wrap;html=1;align=center;strokeWidth=2;fillColor=#fff2cc;strokeColor=#d6b656;" parent="1" vertex="1">
          <mxGeometry x="200" y="310" width="120" height="60" as="geometry" />
        </mxCell>
        <mxCell id="u3OVXh_-RhlKzZClgj6L-7" value="Canción" style="whiteSpace=wrap;html=1;align=center;strokeWidth=2;fillColor=#d5e8d4;strokeColor=#82b366;" parent="1" vertex="1">
          <mxGeometry x="380" y="320" width="100" height="40" as="geometry" />
        </mxCell>
        <mxCell id="u3OVXh_-RhlKzZClgj6L-14" value="Músico" style="whiteSpace=wrap;html=1;align=center;strokeWidth=2;fillColor=#d5e8d4;strokeColor=#82b366;" parent="1" vertex="1">
          <mxGeometry x="40" y="400" width="100" height="40" as="geometry" />
        </mxCell>
        <mxCell id="u3OVXh_-RhlKzZClgj6L-15" style="edgeStyle=orthogonalEdgeStyle;rounded=0;orthogonalLoop=1;jettySize=auto;html=1;exitX=0;exitY=0.5;exitDx=0;exitDy=0;entryX=1;entryY=0.5;entryDx=0;entryDy=0;endArrow=none;endFill=0;" parent="1" source="u3OVXh_-RhlKzZClgj6L-17" target="u3OVXh_-RhlKzZClgj6L-14" edge="1">
          <mxGeometry relative="1" as="geometry" />
        </mxCell>
        <mxCell id="u3OVXh_-RhlKzZClgj6L-16" style="edgeStyle=orthogonalEdgeStyle;rounded=0;orthogonalLoop=1;jettySize=auto;html=1;exitX=1;exitY=0.5;exitDx=0;exitDy=0;entryX=0;entryY=0.5;entryDx=0;entryDy=0;endArrow=none;endFill=0;" parent="1" source="u3OVXh_-RhlKzZClgj6L-17" target="u3OVXh_-RhlKzZClgj6L-18" edge="1">
          <mxGeometry relative="1" as="geometry" />
        </mxCell>
        <mxCell id="u3OVXh_-RhlKzZClgj6L-17" value="Es miembro" style="shape=rhombus;perimeter=rhombusPerimeter;whiteSpace=wrap;html=1;align=center;strokeWidth=2;fillColor=#fff2cc;strokeColor=#d6b656;" parent="1" vertex="1">
          <mxGeometry x="200" y="390" width="120" height="60" as="geometry" />
        </mxCell>
        <mxCell id="u3OVXh_-RhlKzZClgj6L-18" value="Grupo musical" style="whiteSpace=wrap;html=1;align=center;strokeWidth=2;fillColor=#d5e8d4;strokeColor=#82b366;" parent="1" vertex="1">
          <mxGeometry x="380" y="400" width="100" height="40" as="geometry" />
        </mxCell>
        <mxCell id="u3OVXh_-RhlKzZClgj6L-19" value="Grupo musical" style="whiteSpace=wrap;html=1;align=center;strokeWidth=2;fillColor=#d5e8d4;strokeColor=#82b366;" parent="1" vertex="1">
          <mxGeometry x="40" y="480" width="100" height="40" as="geometry" />
        </mxCell>
        <mxCell id="u3OVXh_-RhlKzZClgj6L-20" style="edgeStyle=orthogonalEdgeStyle;rounded=0;orthogonalLoop=1;jettySize=auto;html=1;exitX=0;exitY=0.5;exitDx=0;exitDy=0;entryX=1;entryY=0.5;entryDx=0;entryDy=0;endArrow=none;endFill=0;" parent="1" source="u3OVXh_-RhlKzZClgj6L-22" target="u3OVXh_-RhlKzZClgj6L-19" edge="1">
          <mxGeometry relative="1" as="geometry" />
        </mxCell>
        <mxCell id="u3OVXh_-RhlKzZClgj6L-21" style="edgeStyle=orthogonalEdgeStyle;rounded=0;orthogonalLoop=1;jettySize=auto;html=1;exitX=1;exitY=0.5;exitDx=0;exitDy=0;entryX=0;entryY=0.5;entryDx=0;entryDy=0;endArrow=none;endFill=0;" parent="1" source="u3OVXh_-RhlKzZClgj6L-22" target="u3OVXh_-RhlKzZClgj6L-23" edge="1">
          <mxGeometry relative="1" as="geometry" />
        </mxCell>
        <mxCell id="u3OVXh_-RhlKzZClgj6L-22" value="Graba" style="shape=rhombus;perimeter=rhombusPerimeter;whiteSpace=wrap;html=1;align=center;strokeWidth=2;fillColor=#fff2cc;strokeColor=#d6b656;" parent="1" vertex="1">
          <mxGeometry x="200" y="470" width="120" height="60" as="geometry" />
        </mxCell>
        <mxCell id="u3OVXh_-RhlKzZClgj6L-23" value="Álbum" style="whiteSpace=wrap;html=1;align=center;strokeWidth=2;fillColor=#d5e8d4;strokeColor=#82b366;" parent="1" vertex="1">
          <mxGeometry x="380" y="480" width="100" height="40" as="geometry" />
        </mxCell>
        <mxCell id="u3OVXh_-RhlKzZClgj6L-26" value="Canción" style="whiteSpace=wrap;html=1;align=center;strokeWidth=2;fillColor=#d5e8d4;strokeColor=#82b366;" parent="1" vertex="1">
          <mxGeometry x="40" y="565" width="100" height="40" as="geometry" />
        </mxCell>
        <mxCell id="u3OVXh_-RhlKzZClgj6L-27" style="edgeStyle=orthogonalEdgeStyle;rounded=0;orthogonalLoop=1;jettySize=auto;html=1;exitX=0;exitY=0.5;exitDx=0;exitDy=0;entryX=1;entryY=0.5;entryDx=0;entryDy=0;endArrow=none;endFill=0;" parent="1" source="u3OVXh_-RhlKzZClgj6L-29" target="u3OVXh_-RhlKzZClgj6L-26" edge="1">
          <mxGeometry relative="1" as="geometry" />
        </mxCell>
        <mxCell id="u3OVXh_-RhlKzZClgj6L-28" style="edgeStyle=orthogonalEdgeStyle;rounded=0;orthogonalLoop=1;jettySize=auto;html=1;exitX=1;exitY=0.5;exitDx=0;exitDy=0;entryX=0;entryY=0.5;entryDx=0;entryDy=0;endArrow=none;endFill=0;" parent="1" source="u3OVXh_-RhlKzZClgj6L-29" target="u3OVXh_-RhlKzZClgj6L-30" edge="1">
          <mxGeometry relative="1" as="geometry" />
        </mxCell>
        <mxCell id="u3OVXh_-RhlKzZClgj6L-29" value="Pertenece" style="shape=rhombus;perimeter=rhombusPerimeter;whiteSpace=wrap;html=1;align=center;strokeWidth=2;fillColor=#fff2cc;strokeColor=#d6b656;" parent="1" vertex="1">
          <mxGeometry x="200" y="555" width="120" height="60" as="geometry" />
        </mxCell>
        <mxCell id="u3OVXh_-RhlKzZClgj6L-30" value="Álbum" style="whiteSpace=wrap;html=1;align=center;strokeWidth=2;fillColor=#d5e8d4;strokeColor=#82b366;" parent="1" vertex="1">
          <mxGeometry x="380" y="565" width="100" height="40" as="geometry" />
        </mxCell>
        <mxCell id="u3OVXh_-RhlKzZClgj6L-31" value="Músico" style="whiteSpace=wrap;html=1;align=center;strokeWidth=2;fillColor=#d5e8d4;strokeColor=#82b366;" parent="1" vertex="1">
          <mxGeometry x="310" y="820" width="100" height="40" as="geometry" />
        </mxCell>
        <mxCell id="u3OVXh_-RhlKzZClgj6L-33" style="edgeStyle=orthogonalEdgeStyle;rounded=0;orthogonalLoop=1;jettySize=auto;html=1;exitX=1;exitY=0.5;exitDx=0;exitDy=0;entryX=0;entryY=0.5;entryDx=0;entryDy=0;endArrow=none;endFill=0;" parent="1" source="u3OVXh_-RhlKzZClgj6L-34" target="u3OVXh_-RhlKzZClgj6L-35" edge="1">
          <mxGeometry relative="1" as="geometry" />
        </mxCell>
        <mxCell id="u3OVXh_-RhlKzZClgj6L-48" style="edgeStyle=orthogonalEdgeStyle;rounded=0;orthogonalLoop=1;jettySize=auto;html=1;exitX=0;exitY=0.5;exitDx=0;exitDy=0;entryX=0;entryY=0.5;entryDx=0;entryDy=0;endArrow=none;endFill=0;" parent="1" source="u3OVXh_-RhlKzZClgj6L-34" target="u3OVXh_-RhlKzZClgj6L-31" edge="1">
          <mxGeometry relative="1" as="geometry" />
        </mxCell>
        <mxCell id="u3OVXh_-RhlKzZClgj6L-34" value="Compone" style="shape=rhombus;perimeter=rhombusPerimeter;whiteSpace=wrap;html=1;align=center;strokeWidth=2;fillColor=#fff2cc;strokeColor=#d6b656;" parent="1" vertex="1">
          <mxGeometry x="300" y="670" width="120" height="60" as="geometry" />
        </mxCell>
        <mxCell id="u3OVXh_-RhlKzZClgj6L-35" value="Canción" style="whiteSpace=wrap;html=1;align=center;strokeWidth=2;fillColor=#d5e8d4;strokeColor=#82b366;" parent="1" vertex="1">
          <mxGeometry x="480" y="680" width="100" height="40" as="geometry" />
        </mxCell>
        <mxCell id="u3OVXh_-RhlKzZClgj6L-37" style="edgeStyle=orthogonalEdgeStyle;rounded=0;orthogonalLoop=1;jettySize=auto;html=1;exitX=1;exitY=0.5;exitDx=0;exitDy=0;entryX=0;entryY=0.5;entryDx=0;entryDy=0;endArrow=none;endFill=0;" parent="1" source="u3OVXh_-RhlKzZClgj6L-38" target="u3OVXh_-RhlKzZClgj6L-39" edge="1">
          <mxGeometry relative="1" as="geometry" />
        </mxCell>
        <mxCell id="u3OVXh_-RhlKzZClgj6L-40" style="edgeStyle=orthogonalEdgeStyle;rounded=0;orthogonalLoop=1;jettySize=auto;html=1;exitX=0;exitY=0.5;exitDx=0;exitDy=0;entryX=1;entryY=0.5;entryDx=0;entryDy=0;endArrow=none;endFill=0;" parent="1" source="u3OVXh_-RhlKzZClgj6L-38" target="u3OVXh_-RhlKzZClgj6L-35" edge="1">
          <mxGeometry relative="1" as="geometry" />
        </mxCell>
        <mxCell id="u3OVXh_-RhlKzZClgj6L-38" value="Pertenece" style="shape=rhombus;perimeter=rhombusPerimeter;whiteSpace=wrap;html=1;align=center;strokeWidth=2;fillColor=#fff2cc;strokeColor=#d6b656;" parent="1" vertex="1">
          <mxGeometry x="640" y="670" width="120" height="60" as="geometry" />
        </mxCell>
        <mxCell id="u3OVXh_-RhlKzZClgj6L-39" value="Álbum" style="whiteSpace=wrap;html=1;align=center;strokeWidth=2;fillColor=#d5e8d4;strokeColor=#82b366;" parent="1" vertex="1">
          <mxGeometry x="820" y="680" width="100" height="40" as="geometry" />
        </mxCell>
        <mxCell id="u3OVXh_-RhlKzZClgj6L-44" style="edgeStyle=orthogonalEdgeStyle;rounded=0;orthogonalLoop=1;jettySize=auto;html=1;exitX=0;exitY=0.5;exitDx=0;exitDy=0;entryX=1;entryY=0.5;entryDx=0;entryDy=0;endArrow=none;endFill=0;" parent="1" source="u3OVXh_-RhlKzZClgj6L-41" target="u3OVXh_-RhlKzZClgj6L-39" edge="1">
          <mxGeometry relative="1" as="geometry" />
        </mxCell>
        <mxCell id="u3OVXh_-RhlKzZClgj6L-49" style="edgeStyle=orthogonalEdgeStyle;rounded=0;orthogonalLoop=1;jettySize=auto;html=1;exitX=1;exitY=0.5;exitDx=0;exitDy=0;entryX=1;entryY=0.5;entryDx=0;entryDy=0;endArrow=none;endFill=0;" parent="1" source="u3OVXh_-RhlKzZClgj6L-41" target="u3OVXh_-RhlKzZClgj6L-42" edge="1">
          <mxGeometry relative="1" as="geometry" />
        </mxCell>
        <mxCell id="u3OVXh_-RhlKzZClgj6L-41" value="Graba" style="shape=rhombus;perimeter=rhombusPerimeter;whiteSpace=wrap;html=1;align=center;strokeWidth=2;fillColor=#fff2cc;strokeColor=#d6b656;" parent="1" vertex="1">
          <mxGeometry x="980" y="670" width="120" height="60" as="geometry" />
        </mxCell>
        <mxCell id="u3OVXh_-RhlKzZClgj6L-42" value="Grupo musical" style="whiteSpace=wrap;html=1;align=center;strokeWidth=2;fillColor=#d5e8d4;strokeColor=#82b366;" parent="1" vertex="1">
          <mxGeometry x="990" y="820" width="100" height="40" as="geometry" />
        </mxCell>
        <mxCell id="u3OVXh_-RhlKzZClgj6L-50" style="edgeStyle=orthogonalEdgeStyle;rounded=0;orthogonalLoop=1;jettySize=auto;html=1;exitX=1;exitY=0.5;exitDx=0;exitDy=0;entryX=0;entryY=0.5;entryDx=0;entryDy=0;endArrow=none;endFill=0;" parent="1" source="u3OVXh_-RhlKzZClgj6L-45" target="u3OVXh_-RhlKzZClgj6L-42" edge="1">
          <mxGeometry relative="1" as="geometry" />
        </mxCell>
        <mxCell id="u3OVXh_-RhlKzZClgj6L-51" style="edgeStyle=orthogonalEdgeStyle;rounded=0;orthogonalLoop=1;jettySize=auto;html=1;exitX=0;exitY=0.5;exitDx=0;exitDy=0;entryX=1;entryY=0.5;entryDx=0;entryDy=0;endArrow=none;endFill=0;" parent="1" source="u3OVXh_-RhlKzZClgj6L-45" target="u3OVXh_-RhlKzZClgj6L-31" edge="1">
          <mxGeometry relative="1" as="geometry" />
        </mxCell>
        <mxCell id="u3OVXh_-RhlKzZClgj6L-45" value="Es miembro" style="shape=rhombus;perimeter=rhombusPerimeter;whiteSpace=wrap;html=1;align=center;strokeWidth=2;fillColor=#fff2cc;strokeColor=#d6b656;" parent="1" vertex="1">
          <mxGeometry x="640" y="810" width="120" height="60" as="geometry" />
        </mxCell>
        <mxCell id="ywGeLPf2NP--qqiTYeys-19" style="rounded=0;orthogonalLoop=1;jettySize=auto;html=1;exitX=0;exitY=0.75;exitDx=0;exitDy=0;entryX=0.5;entryY=0;entryDx=0;entryDy=0;endArrow=none;endFill=0;" edge="1" parent="1" source="u3OVXh_-RhlKzZClgj6L-52" target="ywGeLPf2NP--qqiTYeys-12">
          <mxGeometry relative="1" as="geometry" />
        </mxCell>
        <mxCell id="ywGeLPf2NP--qqiTYeys-20" style="rounded=0;orthogonalLoop=1;jettySize=auto;html=1;exitX=0;exitY=1;exitDx=0;exitDy=0;entryX=1;entryY=0.5;entryDx=0;entryDy=0;endArrow=none;endFill=0;" edge="1" parent="1" source="u3OVXh_-RhlKzZClgj6L-52" target="ywGeLPf2NP--qqiTYeys-11">
          <mxGeometry relative="1" as="geometry" />
        </mxCell>
        <mxCell id="ywGeLPf2NP--qqiTYeys-21" style="rounded=0;orthogonalLoop=1;jettySize=auto;html=1;exitX=0.25;exitY=1;exitDx=0;exitDy=0;entryX=0.5;entryY=0;entryDx=0;entryDy=0;endArrow=none;endFill=0;" edge="1" parent="1" source="u3OVXh_-RhlKzZClgj6L-52" target="ywGeLPf2NP--qqiTYeys-16">
          <mxGeometry relative="1" as="geometry" />
        </mxCell>
        <mxCell id="ywGeLPf2NP--qqiTYeys-22" style="edgeStyle=none;rounded=0;orthogonalLoop=1;jettySize=auto;html=1;exitX=0.696;exitY=0.975;exitDx=0;exitDy=0;endArrow=none;endFill=0;exitPerimeter=0;" edge="1" parent="1" source="u3OVXh_-RhlKzZClgj6L-52" target="ywGeLPf2NP--qqiTYeys-17">
          <mxGeometry relative="1" as="geometry" />
        </mxCell>
        <mxCell id="ywGeLPf2NP--qqiTYeys-23" style="edgeStyle=none;rounded=0;orthogonalLoop=1;jettySize=auto;html=1;exitX=0.913;exitY=1.032;exitDx=0;exitDy=0;entryX=0;entryY=0.5;entryDx=0;entryDy=0;endArrow=none;endFill=0;exitPerimeter=0;" edge="1" parent="1" source="u3OVXh_-RhlKzZClgj6L-52" target="ywGeLPf2NP--qqiTYeys-14">
          <mxGeometry relative="1" as="geometry" />
        </mxCell>
        <mxCell id="ywGeLPf2NP--qqiTYeys-24" style="edgeStyle=none;rounded=0;orthogonalLoop=1;jettySize=auto;html=1;exitX=1;exitY=0.75;exitDx=0;exitDy=0;entryX=0.5;entryY=0;entryDx=0;entryDy=0;endArrow=none;endFill=0;" edge="1" parent="1" source="u3OVXh_-RhlKzZClgj6L-52" target="ywGeLPf2NP--qqiTYeys-13">
          <mxGeometry relative="1" as="geometry" />
        </mxCell>
        <mxCell id="u3OVXh_-RhlKzZClgj6L-52" value="Músico" style="whiteSpace=wrap;html=1;align=center;strokeWidth=2;fillColor=#d5e8d4;strokeColor=#82b366;" parent="1" vertex="1">
          <mxGeometry x="230" y="1280" width="100" height="40" as="geometry" />
        </mxCell>
        <mxCell id="u3OVXh_-RhlKzZClgj6L-53" style="edgeStyle=orthogonalEdgeStyle;rounded=0;orthogonalLoop=1;jettySize=auto;html=1;exitX=1;exitY=0.5;exitDx=0;exitDy=0;entryX=0;entryY=0.5;entryDx=0;entryDy=0;endArrow=none;endFill=0;" parent="1" source="u3OVXh_-RhlKzZClgj6L-55" target="u3OVXh_-RhlKzZClgj6L-56" edge="1">
          <mxGeometry relative="1" as="geometry">
            <Array as="points">
              <mxPoint x="370" y="1160" />
              <mxPoint x="370" y="1160" />
            </Array>
          </mxGeometry>
        </mxCell>
        <mxCell id="ywGeLPf2NP--qqiTYeys-3" value="(0,N)" style="edgeLabel;html=1;align=center;verticalAlign=middle;resizable=0;points=[];" vertex="1" connectable="0" parent="u3OVXh_-RhlKzZClgj6L-53">
          <mxGeometry x="0.203" relative="1" as="geometry">
            <mxPoint x="-12" y="-10" as="offset" />
          </mxGeometry>
        </mxCell>
        <mxCell id="u3OVXh_-RhlKzZClgj6L-54" style="edgeStyle=orthogonalEdgeStyle;rounded=0;orthogonalLoop=1;jettySize=auto;html=1;exitX=0;exitY=0.5;exitDx=0;exitDy=0;entryX=0;entryY=0.5;entryDx=0;entryDy=0;endArrow=none;endFill=0;" parent="1" source="u3OVXh_-RhlKzZClgj6L-55" target="u3OVXh_-RhlKzZClgj6L-52" edge="1">
          <mxGeometry relative="1" as="geometry" />
        </mxCell>
        <mxCell id="ywGeLPf2NP--qqiTYeys-2" value="(1,N)" style="edgeLabel;html=1;align=center;verticalAlign=middle;resizable=0;points=[];" vertex="1" connectable="0" parent="u3OVXh_-RhlKzZClgj6L-54">
          <mxGeometry x="-0.1318" y="-2" relative="1" as="geometry">
            <mxPoint x="-18" as="offset" />
          </mxGeometry>
        </mxCell>
        <mxCell id="u3OVXh_-RhlKzZClgj6L-55" value="Compone" style="shape=rhombus;perimeter=rhombusPerimeter;whiteSpace=wrap;html=1;align=center;strokeWidth=2;fillColor=#fff2cc;strokeColor=#d6b656;" parent="1" vertex="1">
          <mxGeometry x="210" y="1130" width="120" height="60" as="geometry" />
        </mxCell>
        <mxCell id="ywGeLPf2NP--qqiTYeys-51" style="rounded=0;orthogonalLoop=1;jettySize=auto;html=1;exitX=0.25;exitY=0;exitDx=0;exitDy=0;entryX=0.5;entryY=1;entryDx=0;entryDy=0;endArrow=none;endFill=0;" edge="1" parent="1" source="u3OVXh_-RhlKzZClgj6L-56" target="ywGeLPf2NP--qqiTYeys-48">
          <mxGeometry relative="1" as="geometry" />
        </mxCell>
        <mxCell id="ywGeLPf2NP--qqiTYeys-52" style="edgeStyle=none;rounded=0;orthogonalLoop=1;jettySize=auto;html=1;exitX=0.5;exitY=0;exitDx=0;exitDy=0;entryX=0.5;entryY=1;entryDx=0;entryDy=0;endArrow=none;endFill=0;" edge="1" parent="1" source="u3OVXh_-RhlKzZClgj6L-56" target="ywGeLPf2NP--qqiTYeys-50">
          <mxGeometry relative="1" as="geometry" />
        </mxCell>
        <mxCell id="ywGeLPf2NP--qqiTYeys-53" style="edgeStyle=none;rounded=0;orthogonalLoop=1;jettySize=auto;html=1;exitX=0.75;exitY=0;exitDx=0;exitDy=0;entryX=0.5;entryY=1;entryDx=0;entryDy=0;endArrow=none;endFill=0;" edge="1" parent="1" source="u3OVXh_-RhlKzZClgj6L-56" target="ywGeLPf2NP--qqiTYeys-49">
          <mxGeometry relative="1" as="geometry" />
        </mxCell>
        <mxCell id="u3OVXh_-RhlKzZClgj6L-56" value="Canción" style="whiteSpace=wrap;html=1;align=center;strokeWidth=2;fillColor=#d5e8d4;strokeColor=#82b366;" parent="1" vertex="1">
          <mxGeometry x="400" y="1140" width="100" height="40" as="geometry" />
        </mxCell>
        <mxCell id="u3OVXh_-RhlKzZClgj6L-57" style="edgeStyle=orthogonalEdgeStyle;rounded=0;orthogonalLoop=1;jettySize=auto;html=1;exitX=1;exitY=0.5;exitDx=0;exitDy=0;entryX=0;entryY=0.5;entryDx=0;entryDy=0;endArrow=none;endFill=0;" parent="1" source="u3OVXh_-RhlKzZClgj6L-59" target="u3OVXh_-RhlKzZClgj6L-60" edge="1">
          <mxGeometry relative="1" as="geometry" />
        </mxCell>
        <mxCell id="ywGeLPf2NP--qqiTYeys-5" value="(1,1)" style="edgeLabel;html=1;align=center;verticalAlign=middle;resizable=0;points=[];" vertex="1" connectable="0" parent="u3OVXh_-RhlKzZClgj6L-57">
          <mxGeometry x="0.208" y="-2" relative="1" as="geometry">
            <mxPoint x="-7" y="-12" as="offset" />
          </mxGeometry>
        </mxCell>
        <mxCell id="u3OVXh_-RhlKzZClgj6L-58" style="edgeStyle=orthogonalEdgeStyle;rounded=0;orthogonalLoop=1;jettySize=auto;html=1;exitX=0;exitY=0.5;exitDx=0;exitDy=0;entryX=1;entryY=0.5;entryDx=0;entryDy=0;endArrow=none;endFill=0;" parent="1" source="u3OVXh_-RhlKzZClgj6L-59" target="u3OVXh_-RhlKzZClgj6L-56" edge="1">
          <mxGeometry relative="1" as="geometry">
            <Array as="points">
              <mxPoint x="540" y="1160" />
              <mxPoint x="540" y="1160" />
            </Array>
          </mxGeometry>
        </mxCell>
        <mxCell id="ywGeLPf2NP--qqiTYeys-6" value="(N,M)" style="edgeLabel;html=1;align=center;verticalAlign=middle;resizable=0;points=[];" vertex="1" connectable="0" parent="u3OVXh_-RhlKzZClgj6L-58">
          <mxGeometry x="-0.231" y="1" relative="1" as="geometry">
            <mxPoint x="-7" y="-11" as="offset" />
          </mxGeometry>
        </mxCell>
        <mxCell id="ywGeLPf2NP--qqiTYeys-40" style="edgeStyle=none;rounded=0;orthogonalLoop=1;jettySize=auto;html=1;exitX=0;exitY=0;exitDx=0;exitDy=0;entryX=0.5;entryY=1;entryDx=0;entryDy=0;endArrow=none;endFill=0;" edge="1" parent="1" source="u3OVXh_-RhlKzZClgj6L-59" target="ywGeLPf2NP--qqiTYeys-39">
          <mxGeometry relative="1" as="geometry" />
        </mxCell>
        <mxCell id="u3OVXh_-RhlKzZClgj6L-59" value="Pertenece" style="shape=rhombus;perimeter=rhombusPerimeter;whiteSpace=wrap;html=1;align=center;strokeWidth=2;fillColor=#fff2cc;strokeColor=#d6b656;" parent="1" vertex="1">
          <mxGeometry x="560" y="1130" width="120" height="60" as="geometry" />
        </mxCell>
        <mxCell id="u3OVXh_-RhlKzZClgj6L-60" value="Álbum" style="whiteSpace=wrap;html=1;align=center;strokeWidth=2;fillColor=#d5e8d4;strokeColor=#82b366;" parent="1" vertex="1">
          <mxGeometry x="740" y="1140" width="100" height="40" as="geometry" />
        </mxCell>
        <mxCell id="u3OVXh_-RhlKzZClgj6L-61" style="edgeStyle=orthogonalEdgeStyle;rounded=0;orthogonalLoop=1;jettySize=auto;html=1;exitX=0;exitY=0.5;exitDx=0;exitDy=0;entryX=1;entryY=0.5;entryDx=0;entryDy=0;endArrow=none;endFill=0;" parent="1" source="u3OVXh_-RhlKzZClgj6L-63" target="u3OVXh_-RhlKzZClgj6L-60" edge="1">
          <mxGeometry relative="1" as="geometry" />
        </mxCell>
        <mxCell id="ywGeLPf2NP--qqiTYeys-8" value="(1,N)" style="edgeLabel;html=1;align=center;verticalAlign=middle;resizable=0;points=[];" vertex="1" connectable="0" parent="u3OVXh_-RhlKzZClgj6L-61">
          <mxGeometry x="-0.1931" y="2" relative="1" as="geometry">
            <mxPoint as="offset" />
          </mxGeometry>
        </mxCell>
        <mxCell id="u3OVXh_-RhlKzZClgj6L-62" style="edgeStyle=orthogonalEdgeStyle;rounded=0;orthogonalLoop=1;jettySize=auto;html=1;exitX=1;exitY=0.5;exitDx=0;exitDy=0;entryX=1;entryY=0.5;entryDx=0;entryDy=0;endArrow=none;endFill=0;" parent="1" source="u3OVXh_-RhlKzZClgj6L-63" target="u3OVXh_-RhlKzZClgj6L-64" edge="1">
          <mxGeometry relative="1" as="geometry" />
        </mxCell>
        <mxCell id="ywGeLPf2NP--qqiTYeys-9" value="(1,1)" style="edgeLabel;html=1;align=center;verticalAlign=middle;resizable=0;points=[];" vertex="1" connectable="0" parent="u3OVXh_-RhlKzZClgj6L-62">
          <mxGeometry x="-0.0305" y="1" relative="1" as="geometry">
            <mxPoint as="offset" />
          </mxGeometry>
        </mxCell>
        <mxCell id="ywGeLPf2NP--qqiTYeys-38" style="edgeStyle=none;rounded=0;orthogonalLoop=1;jettySize=auto;html=1;exitX=1;exitY=0;exitDx=0;exitDy=0;entryX=0;entryY=0.5;entryDx=0;entryDy=0;endArrow=none;endFill=0;" edge="1" parent="1" source="u3OVXh_-RhlKzZClgj6L-63" target="ywGeLPf2NP--qqiTYeys-37">
          <mxGeometry relative="1" as="geometry" />
        </mxCell>
        <mxCell id="u3OVXh_-RhlKzZClgj6L-63" value="Graba" style="shape=rhombus;perimeter=rhombusPerimeter;whiteSpace=wrap;html=1;align=center;strokeWidth=2;fillColor=#fff2cc;strokeColor=#d6b656;" parent="1" vertex="1">
          <mxGeometry x="910" y="1130" width="120" height="60" as="geometry" />
        </mxCell>
        <mxCell id="ywGeLPf2NP--qqiTYeys-54" style="edgeStyle=none;rounded=0;orthogonalLoop=1;jettySize=auto;html=1;exitX=0.5;exitY=1;exitDx=0;exitDy=0;entryX=0.5;entryY=0;entryDx=0;entryDy=0;endArrow=none;endFill=0;" edge="1" parent="1" source="u3OVXh_-RhlKzZClgj6L-64" target="ywGeLPf2NP--qqiTYeys-28">
          <mxGeometry relative="1" as="geometry" />
        </mxCell>
        <mxCell id="ywGeLPf2NP--qqiTYeys-55" style="edgeStyle=none;rounded=0;orthogonalLoop=1;jettySize=auto;html=1;exitX=0.75;exitY=1;exitDx=0;exitDy=0;entryX=0.5;entryY=0;entryDx=0;entryDy=0;endArrow=none;endFill=0;" edge="1" parent="1" source="u3OVXh_-RhlKzZClgj6L-64" target="ywGeLPf2NP--qqiTYeys-26">
          <mxGeometry relative="1" as="geometry" />
        </mxCell>
        <mxCell id="ywGeLPf2NP--qqiTYeys-56" style="edgeStyle=none;rounded=0;orthogonalLoop=1;jettySize=auto;html=1;exitX=0.25;exitY=1;exitDx=0;exitDy=0;entryX=0.5;entryY=0;entryDx=0;entryDy=0;endArrow=none;endFill=0;" edge="1" parent="1" source="u3OVXh_-RhlKzZClgj6L-64" target="ywGeLPf2NP--qqiTYeys-25">
          <mxGeometry relative="1" as="geometry" />
        </mxCell>
        <mxCell id="ywGeLPf2NP--qqiTYeys-57" style="edgeStyle=none;rounded=0;orthogonalLoop=1;jettySize=auto;html=1;exitX=0;exitY=1;exitDx=0;exitDy=0;entryX=0.5;entryY=0;entryDx=0;entryDy=0;endArrow=none;endFill=0;" edge="1" parent="1" source="u3OVXh_-RhlKzZClgj6L-64" target="ywGeLPf2NP--qqiTYeys-29">
          <mxGeometry relative="1" as="geometry" />
        </mxCell>
        <mxCell id="ywGeLPf2NP--qqiTYeys-58" style="edgeStyle=none;rounded=0;orthogonalLoop=1;jettySize=auto;html=1;exitX=1;exitY=1;exitDx=0;exitDy=0;entryX=0.5;entryY=0;entryDx=0;entryDy=0;endArrow=none;endFill=0;" edge="1" parent="1" source="u3OVXh_-RhlKzZClgj6L-64" target="ywGeLPf2NP--qqiTYeys-27">
          <mxGeometry relative="1" as="geometry" />
        </mxCell>
        <mxCell id="u3OVXh_-RhlKzZClgj6L-64" value="Grupo musical" style="whiteSpace=wrap;html=1;align=center;strokeWidth=2;fillColor=#d5e8d4;strokeColor=#82b366;" parent="1" vertex="1">
          <mxGeometry x="900" y="1280" width="100" height="40" as="geometry" />
        </mxCell>
        <mxCell id="u3OVXh_-RhlKzZClgj6L-65" style="edgeStyle=orthogonalEdgeStyle;rounded=0;orthogonalLoop=1;jettySize=auto;html=1;exitX=1;exitY=0.5;exitDx=0;exitDy=0;entryX=0;entryY=0.5;entryDx=0;entryDy=0;endArrow=none;endFill=0;" parent="1" source="u3OVXh_-RhlKzZClgj6L-67" target="u3OVXh_-RhlKzZClgj6L-64" edge="1">
          <mxGeometry relative="1" as="geometry">
            <Array as="points">
              <mxPoint x="800" y="1300" />
              <mxPoint x="800" y="1300" />
            </Array>
          </mxGeometry>
        </mxCell>
        <mxCell id="u3OVXh_-RhlKzZClgj6L-69" value="(1,N)" style="edgeLabel;html=1;align=center;verticalAlign=middle;resizable=0;points=[];" parent="u3OVXh_-RhlKzZClgj6L-65" vertex="1" connectable="0">
          <mxGeometry x="0.0768" relative="1" as="geometry">
            <mxPoint y="-10" as="offset" />
          </mxGeometry>
        </mxCell>
        <mxCell id="u3OVXh_-RhlKzZClgj6L-66" style="edgeStyle=orthogonalEdgeStyle;rounded=0;orthogonalLoop=1;jettySize=auto;html=1;exitX=0;exitY=0.5;exitDx=0;exitDy=0;entryX=1;entryY=0.5;entryDx=0;entryDy=0;endArrow=none;endFill=0;" parent="1" source="u3OVXh_-RhlKzZClgj6L-67" target="u3OVXh_-RhlKzZClgj6L-52" edge="1">
          <mxGeometry relative="1" as="geometry" />
        </mxCell>
        <mxCell id="u3OVXh_-RhlKzZClgj6L-68" value="(N,M)" style="edgeLabel;html=1;align=center;verticalAlign=middle;resizable=0;points=[];" parent="u3OVXh_-RhlKzZClgj6L-66" vertex="1" connectable="0">
          <mxGeometry x="-0.0558" y="2" relative="1" as="geometry">
            <mxPoint x="-2" y="-12" as="offset" />
          </mxGeometry>
        </mxCell>
        <mxCell id="u3OVXh_-RhlKzZClgj6L-67" value="Es miembro" style="shape=rhombus;perimeter=rhombusPerimeter;whiteSpace=wrap;html=1;align=center;strokeWidth=2;fillColor=#fff2cc;strokeColor=#d6b656;" parent="1" vertex="1">
          <mxGeometry x="560" y="1270" width="120" height="60" as="geometry" />
        </mxCell>
        <mxCell id="u3OVXh_-RhlKzZClgj6L-70" value="N:M" style="text;html=1;align=center;verticalAlign=middle;resizable=0;points=[];autosize=1;strokeColor=none;fillColor=none;" parent="1" vertex="1">
          <mxGeometry x="595" y="1245" width="50" height="30" as="geometry" />
        </mxCell>
        <mxCell id="ywGeLPf2NP--qqiTYeys-4" value="N:M" style="text;html=1;align=center;verticalAlign=middle;resizable=0;points=[];autosize=1;strokeColor=none;fillColor=none;" vertex="1" parent="1">
          <mxGeometry x="245" y="1110" width="50" height="30" as="geometry" />
        </mxCell>
        <mxCell id="ywGeLPf2NP--qqiTYeys-7" value="1:N" style="text;html=1;align=center;verticalAlign=middle;resizable=0;points=[];autosize=1;strokeColor=none;fillColor=none;" vertex="1" parent="1">
          <mxGeometry x="600" y="1105" width="40" height="30" as="geometry" />
        </mxCell>
        <mxCell id="ywGeLPf2NP--qqiTYeys-10" value="1:N" style="text;html=1;align=center;verticalAlign=middle;resizable=0;points=[];autosize=1;strokeColor=none;fillColor=none;" vertex="1" parent="1">
          <mxGeometry x="950" y="1105" width="40" height="30" as="geometry" />
        </mxCell>
        <mxCell id="ywGeLPf2NP--qqiTYeys-11" value="Nombre" style="ellipse;whiteSpace=wrap;html=1;align=center;" vertex="1" parent="1">
          <mxGeometry x="140" y="1380" width="60" height="40" as="geometry" />
        </mxCell>
        <mxCell id="ywGeLPf2NP--qqiTYeys-12" value="Código de músico" style="ellipse;whiteSpace=wrap;html=1;align=center;fontStyle=4;" vertex="1" parent="1">
          <mxGeometry x="130" y="1330" width="70" height="40" as="geometry" />
        </mxCell>
        <mxCell id="ywGeLPf2NP--qqiTYeys-13" value="Fecha nacimiento" style="ellipse;whiteSpace=wrap;html=1;align=center;" vertex="1" parent="1">
          <mxGeometry x="350" y="1330" width="70" height="40" as="geometry" />
        </mxCell>
        <mxCell id="ywGeLPf2NP--qqiTYeys-14" value="Año fallecimiento" style="ellipse;whiteSpace=wrap;html=1;align=center;" vertex="1" parent="1">
          <mxGeometry x="345" y="1385" width="80" height="40" as="geometry" />
        </mxCell>
        <mxCell id="ywGeLPf2NP--qqiTYeys-16" value="Género" style="ellipse;whiteSpace=wrap;html=1;align=center;" vertex="1" parent="1">
          <mxGeometry x="200" y="1400" width="60" height="30" as="geometry" />
        </mxCell>
        <mxCell id="ywGeLPf2NP--qqiTYeys-17" value="Nacionalidad" style="ellipse;whiteSpace=wrap;html=1;align=center;" vertex="1" parent="1">
          <mxGeometry x="261" y="1410" width="84" height="30" as="geometry" />
        </mxCell>
        <mxCell id="ywGeLPf2NP--qqiTYeys-25" value="Nombre" style="ellipse;whiteSpace=wrap;html=1;align=center;" vertex="1" parent="1">
          <mxGeometry x="880" y="1360" width="45" height="25" as="geometry" />
        </mxCell>
        <mxCell id="ywGeLPf2NP--qqiTYeys-26" value="Año formación" style="ellipse;whiteSpace=wrap;html=1;align=center;" vertex="1" parent="1">
          <mxGeometry x="975" y="1360" width="60" height="30" as="geometry" />
        </mxCell>
        <mxCell id="ywGeLPf2NP--qqiTYeys-27" value="Año disolución" style="ellipse;whiteSpace=wrap;html=1;align=center;" vertex="1" parent="1">
          <mxGeometry x="1000" y="1330" width="60" height="30" as="geometry" />
        </mxCell>
        <mxCell id="ywGeLPf2NP--qqiTYeys-28" value="Estilo musical" style="ellipse;whiteSpace=wrap;html=1;align=center;" vertex="1" parent="1">
          <mxGeometry x="925" y="1380" width="50" height="30" as="geometry" />
        </mxCell>
        <mxCell id="ywGeLPf2NP--qqiTYeys-29" value="País origen" style="ellipse;whiteSpace=wrap;html=1;align=center;" vertex="1" parent="1">
          <mxGeometry x="845" y="1330" width="50" height="30" as="geometry" />
        </mxCell>
        <mxCell id="ywGeLPf2NP--qqiTYeys-37" value="ID grupo" style="ellipse;whiteSpace=wrap;html=1;align=center;fontStyle=4;" vertex="1" parent="1">
          <mxGeometry x="1010" y="1090" width="60" height="30" as="geometry" />
        </mxCell>
        <mxCell id="ywGeLPf2NP--qqiTYeys-39" value="ID álbum" style="ellipse;whiteSpace=wrap;html=1;align=center;fontStyle=4;" vertex="1" parent="1">
          <mxGeometry x="560" y="1070" width="60" height="30" as="geometry" />
        </mxCell>
        <mxCell id="ywGeLPf2NP--qqiTYeys-48" value="ID canción" style="ellipse;whiteSpace=wrap;html=1;align=center;fontStyle=4;" vertex="1" parent="1">
          <mxGeometry x="355" y="1075" width="60" height="35" as="geometry" />
        </mxCell>
        <mxCell id="ywGeLPf2NP--qqiTYeys-49" value="Título" style="ellipse;whiteSpace=wrap;html=1;align=center;" vertex="1" parent="1">
          <mxGeometry x="480" y="1077.5" width="50" height="30" as="geometry" />
        </mxCell>
        <mxCell id="ywGeLPf2NP--qqiTYeys-50" value="Duración" style="ellipse;whiteSpace=wrap;html=1;align=center;" vertex="1" parent="1">
          <mxGeometry x="425" y="1070" width="50" height="30" as="geometry" />
        </mxCell>
      </root>
    </mxGraphModel>
  </diagram>
</mxfile>
